<svg width="199" height="158" viewBox="0 0 199 158" fill="none" xmlns="http://www.w3.org/2000/svg">
<path d="M198.058 69.919V65.1074C198.058 64.0953 197.656 63.1247 196.94 62.4091C196.224 61.6934 195.254 61.2913 194.242 61.2913C193.407 61.2936 192.594 61.017 191.933 60.5066C191.272 59.9955 190.801 59.2793 190.592 58.4708C189.813 55.6651 188.679 52.9702 187.218 50.4514C186.818 49.7172 186.667 48.8733 186.787 48.0459C186.906 47.2184 187.29 46.452 187.882 45.8611C188.239 45.5063 188.524 45.0842 188.717 44.619C188.911 44.1539 189.011 43.655 189.011 43.1511C189.011 42.6472 188.911 42.1483 188.717 41.6832C188.524 41.2181 188.239 40.7959 187.882 40.4411L184.453 37.0675C184.098 36.7097 183.676 36.4256 183.21 36.2318C182.745 36.0379 182.246 35.9381 181.743 35.9381C181.239 35.9381 180.74 36.0379 180.275 36.2318C179.81 36.4256 179.388 36.7097 179.033 37.0675C178.445 37.6664 177.674 38.0516 176.842 38.1619C176.01 38.2721 175.166 38.101 174.442 37.6758C171.926 36.2229 169.23 35.1072 166.423 34.3575C165.61 34.1378 164.892 33.6552 164.382 32.9849C163.872 32.3146 163.597 31.4944 163.602 30.652C163.602 29.6399 163.2 28.6693 162.485 27.9537C161.769 27.238 160.798 26.8359 159.786 26.8359H154.975C153.963 26.8359 152.992 27.238 152.276 27.9537C151.561 28.6693 151.159 29.6399 151.159 30.652C151.164 31.4944 150.889 32.3146 150.379 32.9849C149.869 33.6552 149.151 34.1378 148.338 34.3575C145.534 35.1172 142.839 36.2324 140.319 37.6758C139.595 38.101 138.751 38.2721 137.919 38.1619C137.087 38.0516 136.316 37.6664 135.728 37.0675C135.374 36.7097 134.952 36.4256 134.486 36.2318C134.021 36.0379 133.522 35.9381 133.018 35.9381C132.515 35.9381 132.016 36.0379 131.55 36.2318C131.085 36.4256 130.663 36.7097 130.308 37.0675L126.935 40.4411C126.577 40.7959 126.293 41.2181 126.099 41.6832C125.905 42.1483 125.805 42.6472 125.805 43.1511C125.805 43.655 125.905 44.1539 126.099 44.619C126.293 45.0842 126.577 45.5063 126.935 45.8611C127.534 46.4487 127.919 47.2197 128.029 48.0515C128.139 48.8833 127.968 49.7281 127.543 50.4514C126.1 52.9722 124.985 55.6673 124.225 58.4708C124.005 59.2837 123.522 60.0016 122.852 60.5115C122.182 61.022 121.362 61.2963 120.519 61.2913C119.507 61.2913 118.537 61.6934 117.821 62.4091C117.105 63.1247 116.703 64.0953 116.703 65.1074V69.919C116.703 70.9311 117.105 71.9017 117.821 72.6174C118.537 73.333 119.507 73.7351 120.519 73.7351C121.362 73.7301 122.182 74.0045 122.852 74.5149C123.522 75.0248 124.005 75.7427 124.225 76.5557C124.974 79.363 126.09 82.0592 127.543 84.575C127.968 85.2984 128.139 86.1429 128.029 86.9747C127.919 87.8065 127.534 88.578 126.935 89.1654C126.577 89.5199 126.293 89.9424 126.099 90.4075C125.905 90.8727 125.805 91.3715 125.805 91.8754C125.805 92.3792 125.905 92.8781 126.099 93.3432C126.293 93.8083 126.577 94.2308 126.935 94.5853L130.308 98.0143C130.663 98.3721 131.085 98.6564 131.55 98.85C132.016 99.0441 132.515 99.1436 133.018 99.1436C133.522 99.1436 134.021 99.0441 134.486 98.85C134.952 98.6564 135.374 98.3721 135.728 98.0143C136.319 97.4231 137.086 97.0387 137.913 96.9187C138.741 96.7992 139.585 96.9508 140.319 97.3506C142.838 98.8118 145.532 99.9456 148.338 100.724C149.147 100.933 149.863 101.405 150.374 102.066C150.884 102.727 151.161 103.539 151.159 104.374C151.159 105.387 151.561 106.357 152.276 107.073C152.992 107.788 153.963 108.191 154.975 108.191H159.786C160.798 108.191 161.769 107.788 162.485 107.073C163.2 106.357 163.602 105.387 163.602 104.374C163.6 103.539 163.877 102.727 164.387 102.066C164.898 101.405 165.614 100.933 166.423 100.724C169.233 99.9561 171.929 98.8217 174.442 97.3506C175.177 96.9508 176.021 96.7992 176.848 96.9187C177.675 97.0387 178.442 97.4231 179.033 98.0143C179.388 98.3721 179.81 98.6564 180.275 98.85C180.74 99.0441 181.239 99.1436 181.743 99.1436C182.246 99.1436 182.745 99.0441 183.21 98.85C183.676 98.6564 184.098 98.3721 184.453 98.0143L187.882 94.5853C188.239 94.2308 188.524 93.8083 188.717 93.3432C188.911 92.8781 189.011 92.3792 189.011 91.8754C189.011 91.3715 188.911 90.8727 188.717 90.4075C188.524 89.9424 188.239 89.5199 187.882 89.1654C187.29 88.5747 186.906 87.8082 186.787 86.9808C186.667 86.1529 186.818 85.3095 187.218 84.575C188.689 82.0614 189.823 79.3652 190.592 76.5557C190.801 75.7471 191.272 75.0309 191.933 74.5199C192.594 74.0094 193.407 73.7329 194.242 73.7351C195.254 73.7351 196.224 73.333 196.94 72.6174C197.656 71.9017 198.058 70.9311 198.058 69.919ZM169.907 66.3795C170.215 69.7017 169.191 73.0106 167.06 75.5773C164.928 78.1446 161.864 79.7596 158.542 80.0676C155.22 80.3757 151.911 79.3514 149.344 77.2199C146.777 75.0884 145.162 72.0245 144.854 68.7023C144.701 67.0575 144.874 65.3983 145.363 63.8199C145.852 62.2421 146.646 60.7753 147.701 59.5044C149.833 56.9371 152.897 55.3222 156.219 55.0142C159.541 54.7061 162.85 55.7304 165.417 57.8618C167.984 59.9933 169.599 63.0573 169.907 66.3795Z" fill="#57D9A3"/>
<path d="M157.353 86.3454H155.694C151.306 85.9594 147.194 84.0408 144.079 80.926C140.964 77.8112 139.045 73.6992 138.66 69.3113C138.404 66.5604 138.758 63.7868 139.696 61.188C140.634 58.5892 142.133 56.2287 144.086 54.2752C146.04 52.3215 148.401 50.8223 150.999 49.8843C153.598 48.9463 156.372 48.5926 159.123 48.8482C163.511 49.2342 167.623 51.1528 170.737 54.2675C173.852 57.3824 175.771 61.4944 176.157 65.8823C176.379 68.4883 176.057 71.112 175.214 73.588C174.37 76.0635 173.022 78.3371 171.255 80.2656C169.487 82.1936 167.34 83.7344 164.947 84.7908C162.554 85.8465 159.968 86.3952 157.353 86.4007V86.3454ZM157.408 49.8438C152.815 49.7857 148.379 51.5157 145.038 54.6683C141.697 57.821 139.713 62.1492 139.505 66.7379C139.296 71.3266 140.881 75.8169 143.922 79.2591C146.964 82.7013 151.225 84.8256 155.804 85.184C158.387 85.4024 160.986 85.0546 163.42 84.1647C165.854 83.2748 168.066 81.864 169.898 80.0317C171.731 78.1989 173.142 75.9883 174.031 73.5538C174.921 71.1198 175.269 68.5204 175.051 65.9376C174.69 61.8052 172.883 57.9327 169.95 54.9994C167.017 52.0662 163.144 50.2604 159.012 49.8991L157.408 49.8438Z" fill="#FAFBFC"/>
<path d="M0.43617 106.862V82.4362H91.1596V106.862H0.43617Z" fill="white" stroke="#DFE1E6" stroke-width="0.872341"/>
<path d="M15.7021 102.413C19.8936 102.413 23.2915 99.0152 23.2915 94.8237C23.2915 90.6322 19.8936 87.2344 15.7021 87.2344C11.5106 87.2344 8.11273 90.6322 8.11273 94.8237C8.11273 99.0152 11.5106 102.413 15.7021 102.413Z" fill="#FFC400"/>
<path d="M85.9257 88.1064H30.8808V89.8511H85.9257V88.1064Z" fill="#A5ADBA"/>
<path d="M57.9234 99.4473H30.8808V101.192H57.9234V99.4473Z" fill="#A5ADBA"/>
<path d="M85.9257 93.7764H30.8808V95.521H85.9257V93.7764Z" fill="#A5ADBA"/>
<path d="M17.883 72.8402V48.4147H108.606V72.8402H17.883Z" fill="white" stroke="#DFE1E6" stroke-width="0.872341"/>
<path d="M33.1489 68.3916C37.3404 68.3916 40.7383 64.9938 40.7383 60.8023C40.7383 56.6107 37.3404 53.2129 33.1489 53.2129C28.9574 53.2129 25.5596 56.6107 25.5596 60.8023C25.5596 64.9938 28.9574 68.3916 33.1489 68.3916Z" fill="#57D9A3"/>
<path d="M103.373 54.085H48.3276V55.8296H103.373V54.085Z" fill="#A5ADBA"/>
<path d="M75.3701 65.4258H48.3276V67.1705H75.3701V65.4258Z" fill="#A5ADBA"/>
<path d="M103.373 59.7549H48.3276V61.4996H103.373V59.7549Z" fill="#A5ADBA"/>
<g filter="url(#filter0_d)">
<g filter="url(#filter1_dd)">
<path d="M150.549 18.6367C151.993 18.6367 153.165 19.8074 153.166 21.2521L153.229 120.328C153.23 121.773 152.059 122.946 150.614 122.947L97.4696 123H56.767C55.3223 123 54.1509 121.83 54.15 120.385L54.0868 21.2554C54.0858 19.8094 55.2578 18.6367 56.7038 18.6367H150.549Z" fill="white"/>
</g>
<path d="M67.727 36.2293C70.7324 36.2293 73.1688 33.793 73.1688 30.7875C73.1688 27.7821 70.7324 25.3457 67.727 25.3457C64.7215 25.3457 62.2852 27.7821 62.2852 30.7875C62.2852 33.793 64.7215 36.2293 67.727 36.2293Z" fill="#3384FF"/>
<path d="M81.3688 37.4219V35.931H89.5688V37.4219H81.3688ZM94.787 37.4219V35.931H102.987V37.4219H94.787ZM108.205 37.4219V35.931H116.405V37.4219H108.205ZM121.623 37.4219V35.931H129.823V37.4219H121.623ZM135.042 37.3474V35.8564H143.242V37.3474H135.042Z" fill="#3384FF"/>
<path d="M67.727 61.2762C70.7324 61.2762 73.1688 58.8393 73.1688 55.8344C73.1688 52.8287 70.7324 50.3926 67.727 50.3926C64.7215 50.3926 62.2852 52.8287 62.2852 55.8344C62.2852 58.8393 64.7215 61.2762 67.727 61.2762Z" fill="#3384FF"/>
<path d="M81.3688 62.3933V60.9023H89.5688V62.3933H81.3688ZM94.787 62.3933V60.9023H102.987V62.3933H94.787ZM108.205 62.3933V60.9023H116.405V62.3933H108.205ZM121.623 62.3933V60.9023H129.823V62.3933H121.623ZM135.042 62.3933V60.9023H143.242V62.3933H135.042Z" fill="#3384FF"/>
<path d="M67.8016 86.2489C70.807 86.2489 73.2434 83.812 73.2434 80.807C73.2434 77.8014 70.807 75.3652 67.8016 75.3652C64.7961 75.3652 62.3597 77.8014 62.3597 80.807C62.3597 83.812 64.7961 86.2489 67.8016 86.2489Z" fill="#3384FF"/>
<path d="M81.3688 87.3669V85.876H89.5688V87.3669H81.3688ZM94.787 87.3669V85.876H102.987V87.3669H94.787ZM108.205 87.3669V85.876H116.405V87.3669H108.205ZM121.623 87.3669V85.876H129.823V87.3669H121.623ZM135.042 87.3669V85.876H143.242V87.3669H135.042Z" fill="#3384FF"/>
<path d="M67.8016 111.222C70.807 111.222 73.2434 108.785 73.2434 105.78C73.2434 102.774 70.807 100.338 67.8016 100.338C64.7961 100.338 62.3597 102.774 62.3597 105.78C62.3597 108.785 64.7961 111.222 67.8016 111.222Z" fill="#3384FF"/>
<path d="M81.3688 111.966V110.476H89.5688V111.966H81.3688ZM94.787 111.966V110.476H102.987V111.966H94.787ZM108.205 111.966V110.476H116.405V111.966H108.205ZM121.623 111.966V110.476H129.823V111.966H121.623ZM135.042 111.966V110.476H143.242V111.966H135.042Z" fill="#3384FF"/>
</g>
<path d="M93.5943 80.5923L103.062 70.3051L94.3398 66.6523L93.5943 80.5923Z" fill="#FEEFD3"/>
<path d="M93.8925 75.0762L93.5943 80.5925L97.3961 76.4925L93.8925 75.0762Z" fill="#091E42"/>
<path d="M129.228 8.38451L120.507 4.70062L121.318 2.77787C121.788 1.66684 122.679 0.787805 123.796 0.334121C124.914 -0.119637 126.166 -0.110915 127.277 0.358423L127.621 0.503414C128.731 0.972752 129.61 1.86409 130.064 2.98153C130.517 4.09896 130.509 5.35081 130.04 6.46176L129.228 8.38451Z" fill="#3384FF"/>
<path d="M94.4121 66.5343L103.134 70.2183L128.016 11.3129L119.295 7.62891L94.4121 66.5343Z" fill="#FDC150"/>
<path d="M98.7685 68.4802L103.094 70.3081L127.977 11.4027L123.651 9.5752L98.7685 68.4802Z" fill="#FFD740"/>
<path d="M94.4225 66.5857L98.7483 68.4135L123.631 9.50815L119.305 7.68066L94.4225 66.5857Z" fill="#FCB123"/>
<path d="M118.516 9.38612L127.237 13.0701L129.92 6.71807L121.199 3.03418L118.516 9.38612Z" fill="#3384FF"/>
<defs>
<filter id="filter0_d" x="29.0867" y="3.63672" width="149.142" height="154.364" filterUnits="userSpaceOnUse" color-interpolation-filters="sRGB">
<feFlood flood-opacity="0" result="BackgroundImageFix"/>
<feColorMatrix in="SourceAlpha" type="matrix" values="0 0 0 0 0 0 0 0 0 0 0 0 0 0 0 0 0 0 127 0"/>
<feOffset dy="10"/>
<feGaussianBlur stdDeviation="12.5"/>
<feColorMatrix type="matrix" values="0 0 0 0 0.0352941 0 0 0 0 0.117647 0 0 0 0 0.258824 0 0 0 0.11 0"/>
<feBlend mode="normal" in2="BackgroundImageFix" result="effect1_dropShadow"/>
<feBlend mode="normal" in="SourceGraphic" in2="effect1_dropShadow" result="shape"/>
</filter>
<filter id="filter1_dd" x="49.725" y="16.892" width="107.866" height="113.087" filterUnits="userSpaceOnUse" color-interpolation-filters="sRGB">
<feFlood flood-opacity="0" result="BackgroundImageFix"/>
<feColorMatrix in="SourceAlpha" type="matrix" values="0 0 0 0 0 0 0 0 0 0 0 0 0 0 0 0 0 0 127 0"/>
<feOffset/>
<feGaussianBlur stdDeviation="0.43617"/>
<feColorMatrix type="matrix" values="0 0 0 0 0.0352941 0 0 0 0 0.117647 0 0 0 0 0.258824 0 0 0 0.31 0"/>
<feBlend mode="normal" in2="BackgroundImageFix" result="effect1_dropShadow"/>
<feColorMatrix in="SourceAlpha" type="matrix" values="0 0 0 0 0 0 0 0 0 0 0 0 0 0 0 0 0 0 127 0"/>
<feOffset dy="2.61702"/>
<feGaussianBlur stdDeviation="2.18085"/>
<feColorMatrix type="matrix" values="0 0 0 0 0.0352941 0 0 0 0 0.117647 0 0 0 0 0.258824 0 0 0 0.2 0"/>
<feBlend mode="normal" in2="effect1_dropShadow" result="effect2_dropShadow"/>
<feBlend mode="normal" in="SourceGraphic" in2="effect2_dropShadow" result="shape"/>
</filter>
</defs>
</svg>
