<svg width="188" height="191" viewBox="0 0 188 191" fill="none" xmlns="http://www.w3.org/2000/svg">
<path d="M68.0323 22.6113H9.05127C5.95855 22.6113 3.5 25.0513 3.5 28.0743V86.9632C3.5 90.0602 6.03278 92.5002 9.05127 92.5002H68.0323C71.1347 92.5002 73.5836 89.9766 73.5836 86.9632V28.1484C73.5836 25.0513 71.0508 22.6113 68.0323 22.6113Z" stroke="#DFE1E6"/>
<path d="M36.3133 84.5925C50.0569 84.5925 61.1982 73.4825 61.1982 59.7777C61.1982 46.0729 50.0569 34.9629 36.3133 34.9629C22.5697 34.9629 11.4284 46.0729 11.4284 59.7777C11.4284 73.4825 22.5697 84.5925 36.3133 84.5925Z" fill="url(#paint0_linear)"/>
<path fill-rule="evenodd" clip-rule="evenodd" d="M63.0553 60.2225H36.3133V33.5558C36.3133 31.3336 38.0961 29.6299 40.3246 29.6299C40.4732 29.6299 40.696 29.6299 40.8446 29.704C54.3641 31.704 64.9867 42.2966 66.9923 55.778C67.2895 57.9262 65.8038 59.9262 63.6496 60.2966C63.4267 60.2225 63.2782 60.2225 63.0553 60.2225Z" fill="#FFC400"/>
<g filter="url(#filter0_d)">
<path d="M48.0513 72H149.597C152.345 72 154.648 74.2222 154.648 77.037V144.741C154.648 147.481 152.419 149.778 149.597 149.778H48.0513C45.3028 149.778 43 147.556 43 144.741V77.037C43 74.2222 45.2285 72 48.0513 72Z" fill="white"/>
</g>
<mask id="mask0" mask-type="alpha" maskUnits="userSpaceOnUse" x="43" y="106" width="112" height="45">
<path opacity="0.6" d="M112.825 131.407C111.711 132.074 110.374 132.074 109.26 131.407C108.74 131.111 108.294 130.666 107.923 130.074L94.1802 106.37L43.1475 135.778V145.037C43.1475 147.778 45.376 150.074 48.1987 150.074H149.744C152.493 150.074 154.795 147.852 154.795 145.111V107.333L112.825 131.407Z" fill="#C4C4C4"/>
</mask>
<g mask="url(#mask0)">
<line x1="99.5" y1="106.044" x2="40.5" y2="106.044" stroke="#8777D9"/>
<line x1="99.5" y1="117.587" x2="40.5" y2="117.587" stroke="#8777D9"/>
<line x1="99.5" y1="129.131" x2="40.5" y2="129.131" stroke="#8777D9"/>
<line x1="99.5" y1="140.674" x2="40.5" y2="140.674" stroke="#8777D9"/>
<line x1="52.5435" y1="94" x2="52.5435" y2="153" stroke="#8777D9"/>
<line x1="64.087" y1="94" x2="64.087" y2="153" stroke="#8777D9"/>
<line x1="75.6305" y1="94" x2="75.6305" y2="153" stroke="#8777D9"/>
<line x1="87.1737" y1="94" x2="87.1737" y2="153" stroke="#8777D9"/>
<line x1="98.7175" y1="94" x2="98.7175" y2="153" stroke="#8777D9"/>
<line x1="158.5" y1="106.044" x2="99.5" y2="106.044" stroke="#8777D9"/>
<line x1="158.5" y1="117.587" x2="99.5" y2="117.587" stroke="#8777D9"/>
<line x1="158.5" y1="129.131" x2="99.5" y2="129.131" stroke="#8777D9"/>
<line x1="158.5" y1="140.674" x2="99.5" y2="140.674" stroke="#8777D9"/>
<line x1="111.544" y1="94" x2="111.543" y2="153" stroke="#8777D9"/>
<line x1="123.087" y1="94" x2="123.087" y2="153" stroke="#8777D9"/>
<line x1="134.631" y1="94" x2="134.63" y2="153" stroke="#8777D9"/>
<line x1="146.174" y1="94" x2="146.174" y2="153" stroke="#8777D9"/>
</g>
<path fill-rule="evenodd" clip-rule="evenodd" d="M108.563 129.707C108.789 130.101 109.139 130.461 109.644 130.777C110.524 131.301 111.567 131.3 112.446 130.774L112.457 130.767L154.057 106.832V100.239L112.013 124.427L111.066 122.655L97.9948 100.068C97.2353 98.7278 95.462 98.2462 94.0998 99.0119C94.0988 99.0125 94.0978 99.013 94.0969 99.0136L43.96 127.908V134.428L94.5257 105.363L108.563 129.707ZM94.2544 106.37L107.923 130.074C108.22 130.593 108.665 131.037 109.26 131.407C110.374 132.074 111.711 132.074 112.825 131.407L154.795 107.259V98.963L112.305 123.407L111.711 122.296L98.6371 99.7037C97.6714 98 95.4429 97.4074 93.7344 98.3704L43.2217 127.482V135.704L94.2544 106.37Z" fill="url(#paint1_linear)"/>
<path fill-rule="evenodd" clip-rule="evenodd" d="M170.989 91.5559C170.989 89.0756 173.009 87.0477 175.52 87.0477C178.032 87.0477 180.052 89.0756 180.052 91.5559C180.052 94.0363 178.032 96.0642 175.52 96.0642C173.009 96.0642 170.989 94.0363 170.989 91.5559ZM175.52 79.916C169.089 79.916 163.858 85.1179 163.858 91.5559C163.858 92.2715 163.922 92.9718 164.046 93.6513L154.795 98.9798V98.9634L112.325 123.396L111.979 122.798L111.711 122.297L98.6371 99.7042C97.6714 98.0005 95.4429 97.4079 93.7344 98.3708L43.2217 127.482V135.704L94.234 106.383L100.893 117.884L107.923 130.075C108.22 130.593 108.665 131.037 109.26 131.408C110.374 132.075 111.711 132.075 112.825 131.408L154.795 107.26V107.21L167.425 99.9351C169.524 101.955 172.379 103.196 175.52 103.196C181.952 103.196 187.183 97.994 187.183 91.5559C187.183 85.1179 181.952 79.916 175.52 79.916Z" fill="url(#paint2_linear)"/>
<path d="M88.5395 9.03027H153.909C156.657 9.03027 158.96 11.2525 158.96 14.0673V56.2155C158.96 58.9562 156.732 61.2525 153.909 61.2525H88.5395C85.791 61.2525 83.4882 59.0303 83.4882 56.2155V13.9932C83.5625 11.2525 85.791 9.03027 88.5395 9.03027Z" fill="white"/>
<path d="M99.6077 25.9189H108.225C109.116 25.9189 109.859 26.6597 109.859 27.5486V50.5856C109.859 51.4745 109.116 52.2152 108.225 52.2152H99.6077C98.7163 52.2152 97.9734 51.4745 97.9734 50.5856V27.5486C97.9734 26.6597 98.7163 25.9189 99.6077 25.9189Z" fill="#1C79FF"/>
<path d="M117.138 18.5117H125.384C126.424 18.5117 127.241 19.3265 127.241 20.3636V50.4376C127.241 51.4747 126.424 52.2895 125.384 52.2895H117.138C116.098 52.2895 115.281 51.4747 115.281 50.4376V20.3636C115.281 19.3265 116.098 18.5117 117.138 18.5117Z" fill="#998DD9"/>
<path d="M134.075 32.3633H143.138C143.955 32.3633 144.549 33.0299 144.549 33.7707V50.7337C144.549 51.5485 143.881 52.1411 143.138 52.1411H134.075C133.258 52.1411 132.664 51.4744 132.664 50.7337V33.8448C132.589 33.0299 133.258 32.3633 134.075 32.3633Z" fill="#1C79FF"/>
<defs>
<filter id="filter0_d" x="31" y="68" width="135.648" height="101.778" filterUnits="userSpaceOnUse" color-interpolation-filters="sRGB">
<feFlood flood-opacity="0" result="BackgroundImageFix"/>
<feColorMatrix in="SourceAlpha" type="matrix" values="0 0 0 0 0 0 0 0 0 0 0 0 0 0 0 0 0 0 127 0"/>
<feOffset dy="8"/>
<feGaussianBlur stdDeviation="6"/>
<feColorMatrix type="matrix" values="0 0 0 0 0.0352941 0 0 0 0 0.117647 0 0 0 0 0.258824 0 0 0 0.15 0"/>
<feBlend mode="normal" in2="BackgroundImageFix" result="effect1_dropShadow"/>
<feBlend mode="normal" in="SourceGraphic" in2="effect1_dropShadow" result="shape"/>
</filter>
<linearGradient id="paint0_linear" x1="23.8356" y1="81.3078" x2="48.6263" y2="38.2462" gradientUnits="userSpaceOnUse">
<stop stop-color="#0065FF"/>
<stop offset="1" stop-color="#4C9AFF"/>
</linearGradient>
<linearGradient id="paint1_linear" x1="45" y1="131" x2="95.5" y2="103.5" gradientUnits="userSpaceOnUse">
<stop stop-color="#79F2C0"/>
<stop offset="0.840862" stop-color="#57D9A3"/>
</linearGradient>
<linearGradient id="paint2_linear" x1="46.5" y1="132" x2="178.5" y2="80.0004" gradientUnits="userSpaceOnUse">
<stop stop-color="#8777D9"/>
<stop offset="1" stop-color="#C0B6F2"/>
</linearGradient>
</defs>
</svg>
